<?xml version="1.0" encoding="UTF-8"?>
<!--
   Copyright 2026 DATA @ UHN. See the NOTICE file
   distributed with this work for additional information
   regarding copyright ownership.

   Licensed under the Apache License, Version 2.0 (the "License");
   you may not use this file except in compliance with the License.
   You may obtain a copy of the License at

       http://www.apache.org/licenses/LICENSE-2.0

   Unless required by applicable law or agreed to in writing, software
   distributed under the License is distributed on an "AS IS" BASIS,
   WITHOUT WARRANTIES OR CONDITIONS OF ANY KIND, either express or implied.
   See the License for the specific language governing permissions and
   limitations under the License.
-->
<svg width="309.75" height="46.75" viewBox="123.75 45.50 309.75 46.75" xmlns="http://www.w3.org/2000/svg" role="img"><title>QuorumPath</title><line x1="163.87" y1="55.40" x2="314.31" y2="55.40" stroke="#A3A9BC" stroke-opacity="0.3" stroke-width="2.40" stroke-linecap="round"/><circle cx="324.39" cy="55.40" r="9.12" fill="none" stroke="#C0233C" stroke-width="1.44" opacity="0.6"/><circle cx="324.39" cy="55.40" r="5.52" fill="#C0233C"/><g fill="#A3A9BC"><path transform="translate(122.51,86) scale(0.048000,-0.048000)" d="M31 369Q31 485 76.0 571.0Q121 657 202.0 704.5Q283 752 391 752Q499 752 580.0 704.5Q661 657 705.5 571.0Q750 485 750 369Q750 279 722.5 207.5Q695 136 645 86Q643 84 643 78Q643 70 656.5 59.5Q670 49 691.0 41.0Q712 33 733 30Q744 29 747.0 23.5Q750 18 750 13V-97Q750 -116 740.0 -122.0Q730 -128 706 -128Q631 -128 575.5 -96.5Q520 -65 477 -10Q473 -4 462 -6Q444 -8 427.5 -9.0Q411 -10 391 -10Q281 -10 200.0 36.5Q119 83 75.0 168.5Q31 254 31 369ZM269 367Q269 246 296.5 196.0Q324 146 391 146Q457 146 484.5 196.0Q512 246 512 367Q512 491 484.0 544.5Q456 598 391 598Q326 598 297.5 544.5Q269 491 269 367Z"/><path transform="translate(160.04,86) scale(0.048000,-0.048000)" d="M285 130Q308 130 327.5 142.0Q347 154 360 171V501Q360 530 393 530H536Q562 530 562 504L558 22Q558 0 539 0H381Q363 0 363 20V64Q363 70 359.5 71.5Q356 73 351 68Q317 28 276.0 9.0Q235 -10 185 -10Q142 -10 108.5 9.5Q75 29 55.5 66.5Q36 104 36 157V500Q36 530 67 530H213Q236 530 236 504V179Q236 156 249.5 143.0Q263 130 285 130Z"/><path transform="translate(188.89,86) scale(0.048000,-0.048000)" d="M299 -10Q217 -10 154.5 25.0Q92 60 56.5 121.5Q21 183 21 262Q21 346 58.0 408.5Q95 471 158.0 505.5Q221 540 300 540Q384 540 446.5 504.0Q509 468 544.0 405.5Q579 343 579 262Q579 183 543.5 121.5Q508 60 445.0 25.0Q382 -10 299 -10ZM300 118Q327 118 344.0 133.5Q361 149 369.0 182.0Q377 215 377 266Q377 319 369.0 352.0Q361 385 344.0 400.5Q327 416 300 416Q274 416 256.5 400.5Q239 385 231.0 352.0Q223 319 223 266Q223 214 231.0 181.5Q239 149 256.5 133.5Q274 118 300 118Z"/><path transform="translate(217.68,86) scale(0.048000,-0.048000)" d="M67 0Q52 0 46.5 6.0Q41 12 41 25V507Q41 530 60 530H216Q234 530 234 510V454Q234 447 240.0 445.5Q246 444 251 451Q267 476 292.0 496.0Q317 516 345.0 528.0Q373 540 396 540Q433 540 433 520V368Q433 347 413 352Q390 358 365.5 360.5Q341 363 327 363Q311 363 295.5 357.5Q280 352 267.5 342.0Q255 332 248.0 320.0Q241 308 241 295V29Q241 0 208 0H67Z"/><path transform="translate(239.48,86) scale(0.048000,-0.048000)" d="M285 130Q308 130 327.5 142.0Q347 154 360 171V501Q360 530 393 530H536Q562 530 562 504L558 22Q558 0 539 0H381Q363 0 363 20V64Q363 70 359.5 71.5Q356 73 351 68Q317 28 276.0 9.0Q235 -10 185 -10Q142 -10 108.5 9.5Q75 29 55.5 66.5Q36 104 36 157V500Q36 530 67 530H213Q236 530 236 504V179Q236 156 249.5 143.0Q263 130 285 130Z"/><path transform="translate(268.32,86) scale(0.048000,-0.048000)" d="M67 0Q41 0 41 25V507Q41 530 60 530H220Q238 530 238 510V465Q238 459 241.5 457.0Q245 455 251 461Q273 484 298.0 502.0Q323 520 352.0 530.5Q381 541 411 541Q461 541 498.5 516.5Q536 492 553 445Q555 441 558.0 441.5Q561 442 565 446Q584 472 613.0 493.0Q642 514 675.0 527.0Q708 540 738 540Q806 540 849.0 496.5Q892 453 892 373V30Q892 0 861 0H715Q702 0 697.0 5.5Q692 11 692 25V351Q692 374 677.5 386.5Q663 399 640 399Q628 399 615.5 393.5Q603 388 592.5 379.5Q582 371 574 360Q569 353 567.5 346.5Q566 340 566 333V30Q566 0 536 0H390Q378 0 372.5 5.5Q367 11 367 25V351Q367 374 353.0 386.5Q339 399 315 399Q293 399 274.0 387.0Q255 375 241 349V29Q241 0 208 0H67Z"/><path transform="translate(335.91,86) scale(0.048000,-0.048000)" d="M611 535Q611 461 577.5 415.0Q544 369 485.5 348.0Q427 327 351 327H168Q160 327 160 318V9Q160 0 152 0H122Q118 0 116.0 2.0Q114 4 114 8V732Q114 742 123 742H345Q423 742 483.0 721.5Q543 701 577.0 655.5Q611 610 611 535ZM563 538Q563 600 536.5 636.0Q510 672 461.0 687.0Q412 702 344 702H169Q160 702 160 694V377Q160 367 167 367H351Q447 367 505.0 406.5Q563 446 563 538Z"/><path transform="translate(368.27,86) scale(0.048000,-0.048000)" d="M408 72Q367 31 320.5 10.5Q274 -10 218 -10Q139 -10 93.5 29.0Q48 68 48 135Q48 186 75.5 222.0Q103 258 158.0 279.5Q213 301 295 308L400 317Q408 318 412.5 321.5Q417 325 417 332V363Q417 427 376.5 464.5Q336 502 268 502Q216 502 175.0 478.5Q134 455 100 410Q97 406 95.0 405.0Q93 404 90 406L66 421Q64 423 63.5 425.0Q63 427 66 431Q98 478 148.5 509.0Q199 540 270 540Q327 540 369.0 519.5Q411 499 434.0 460.0Q457 421 457 367V10Q457 4 454.5 2.0Q452 0 447 0H429Q425 0 422.5 2.0Q420 4 420 9L418 70Q416 82 408 72ZM417 266Q417 282 403 280L314 273Q255 269 212.5 258.0Q170 247 143.0 230.0Q116 213 103.0 190.0Q90 167 90 138Q90 86 126.5 57.0Q163 28 224 28Q261 28 296.5 41.5Q332 55 360 77Q388 100 402.5 124.5Q417 149 417 171V266Z"/><path transform="translate(393.15,86) scale(0.048000,-0.048000)" d="M179 495Q172 495 172 488V124Q172 69 188.0 52.0Q204 35 234 35H313Q317 35 319.0 33.5Q321 32 321 28V11Q321 6 315 4Q309 3 292.5 2.0Q276 1 260.0 0.5Q244 0 237 0Q177 0 154.5 27.5Q132 55 132 119V488Q132 495 125 495H32Q26 495 26 501V524Q26 530 32 530H126Q132 530 132 537L141 700Q141 710 149 710H163Q172 710 172 699V537Q172 530 179 530H318Q324 530 324 524V501Q324 495 318 495Z"/><path transform="translate(409.85,86) scale(0.048000,-0.048000)" d="M100 0Q91 0 91 9V733Q91 742 99 742H120Q128 742 128 734V460Q128 455 130.0 454.0Q132 453 136 457Q174 484 204.0 502.5Q234 521 264.0 530.5Q294 540 330 540Q410 540 451.0 499.0Q492 458 492 393V10Q492 0 483 0H461Q457 0 454.5 2.5Q452 5 452 9V377Q452 436 423.0 469.0Q394 502 329 502Q294 502 264.0 491.5Q234 481 202.5 461.0Q171 441 131 410V9Q131 0 122 0H100Z"/></g></svg>